<svg width="96" height="96" viewBox="0 0 96 96" fill="none" xmlns="http://www.w3.org/2000/svg">
<rect width="96" height="96" fill="#E7EAEF"/>
<path d="M27 55.0002C30.866 55.0002 34 51.8662 34 48.0001C34 44.1341 30.866 41 27 41C23.134 41 20 44.1341 20 48.0001C20 51.8662 23.134 55.0002 27 55.0002Z" fill="#141414"/>
<path d="M48 55.0002C51.866 55.0002 55 51.8662 55 48.0001C55 44.1341 51.866 41 48 41C44.134 41 41 44.1341 41 48.0001C41 51.8662 44.134 55.0002 48 55.0002Z" fill="#141414"/>
<path opacity="0.2" d="M27 76.0002C30.866 76.0002 34 72.8662 34 69.0001C34 65.1341 30.866 62 27 62C23.134 62 20 65.1341 20 69.0001C20 72.8662 23.134 76.0002 27 76.0002Z" fill="#141414"/>
<path opacity="0.2" d="M69 76.0002C72.866 76.0002 76 72.8662 76 69.0001C76 65.1341 72.866 62 69 62C65.134 62 62 65.1341 62 69.0001C62 72.8662 65.134 76.0002 69 76.0002Z" fill="#141414"/>
<path d="M48 76.0002C51.866 76.0002 55 72.8662 55 69.0001C55 65.1341 51.866 62 48 62C44.134 62 41 65.1341 41 69.0001C41 72.8662 44.134 76.0002 48 76.0002Z" fill="#141414"/>
<path d="M69 55.0002C72.866 55.0002 76 51.8662 76 48.0001C76 44.1341 72.866 41 69 41C65.134 41 62 44.1341 62 48.0001C62 51.8662 65.134 55.0002 69 55.0002Z" fill="#141414"/>
<path opacity="0.2" d="M27 34.0002C30.866 34.0002 34 30.8662 34 27.0001C34 23.1341 30.866 20 27 20C23.134 20 20 23.1341 20 27.0001C20 30.8662 23.134 34.0002 27 34.0002Z" fill="#141414"/>
<path opacity="0.2" d="M48 34.0002C51.866 34.0002 55 30.8662 55 27.0001C55 23.1341 51.866 20 48 20C44.134 20 41 23.1341 41 27.0001C41 30.8662 44.134 34.0002 48 34.0002Z" fill="#141414"/>
<path opacity="0.2" d="M69 34.0002C72.866 34.0002 76 30.8662 76 27.0001C76 23.1341 72.866 20 69 20C65.134 20 62 23.1341 62 27.0001C62 30.8662 65.134 34.0002 69 34.0002Z" fill="#141414"/>
</svg>
