<?xml version="1.0" encoding="UTF-8" standalone="no"?>
<svg
   width="96"
   height="96"
   viewBox="0 0 96 96"
   fill="none"
   version="1.1"
   id="svg8"
   xmlns="http://www.w3.org/2000/svg"
   xmlns:svg="http://www.w3.org/2000/svg">
  <defs
     id="defs8" />
  <rect
     style="fill:#ffffff"
     id="rect8"
     width="98.831566"
     height="98.831566"
     x="-1.3061441"
     y="-0.87076271" />
  <g
     opacity="0.4"
     id="g1"
     transform="matrix(0.10287234,0,0,0.10287234,2,4)">
    <path
       d="m 54.4854,579.082 c 0,0 93.4696,-137.212 263.9816,-95.184 170.511,42.029 169.17,-123.806 340.956,-150.552 171.786,-26.678 234.68,59.792 234.68,59.792 l 10.795,111.473 -47.338,121.192 -88.843,63.881 -39.829,32.376 -23.266,71.388 -72.215,4.96 -36.543,-5.831 -6.638,-57.245 -36.543,-22.858 -74.025,12.87 -28.094,34.857 -18.238,38.207 h -89.648 l -14.952,-66.428 -55.787,-24.265 -97.024,-55.435 -40.7,-32.376 -42.3092,4.961 -34.0621,-5.832 -4.3583,-40.085 z"
       fill="#416a5d"
       id="path1" />
  </g>
  <path
     d="m 34.478547,87.127024 h -3.124645 c -3.242021,0 -5.959703,-2.427274 -6.318418,-5.654379 l -0.413856,-3.744347 c -0.117274,-1.055059 0.641512,-2.006629 1.696879,-2.123903 1.055367,-0.124064 2.007245,0.641307 2.12452,1.696365 l 0.413856,3.744348 c 0.144843,1.27572 1.213996,2.234181 2.497019,2.234181 h 3.124645 c 1.06226,0 1.924433,0.861967 1.924433,1.917026 0,1.054956 -0.862173,1.923816 -1.924433,1.923816"
     fill="#023927"
     id="path2"
     style="stroke-width:0.102872" />
  <path
     d="m 61.131433,87.127126 h -2.724677 c -2.793601,0 -5.228486,-1.785967 -6.06309,-4.447686 l -0.90363,-2.875488 c -0.317258,-1.013703 0.248333,-2.08944 1.255453,-2.406595 1.013911,-0.317258 2.089955,0.241338 2.407317,1.255043 l 0.903527,2.875488 c 0.331146,1.054955 1.296808,1.758294 2.400423,1.758294 h 2.724677 c 1.06226,0 1.924433,0.861966 1.924433,1.917026 0,1.055059 -0.862173,1.923918 -1.924433,1.923918 z"
     fill="#023927"
     id="path3"
     style="stroke-width:0.102872" />
  <path
     d="m 55.682182,10.233642 c 0,0.441322 0.248335,0.765422 0.731114,0.972288 V 9.4337479 c -0.489672,0.089643 -0.731114,0.3585718 -0.731114,0.7998941 z"
     fill="#63e892"
     id="path4"
     style="stroke-width:0.102872" />
  <path
     d="m 56.758227,4 c -4.559405,0 -8.256637,3.6960695 -8.256637,8.254096 0,4.558036 3.697232,8.254137 8.256637,8.254137 4.559405,0 8.256534,-3.696101 8.256534,-8.254137 C 65.014761,7.6960695 61.317632,4 56.758227,4 Z"
     fill="#023927"
     id="path5"
     style="stroke-width:0.102872" />
  <g
     opacity="0.3"
     id="g6"
     transform="matrix(0.10287234,0,0,0.10287234,2,4)">
    <path
       d="m 110.338,625.065 c 0,0 -47.472,-271.476 297.776,-294.133 345.247,-22.656 223.75,-193.384 364.29,-107.652 140.54,85.733 94.274,151.089 94.274,151.089 l 12.002,164.36 -87.435,131.18 -78.584,51.413 -6.973,72.192 -67.521,1.475 -50.691,-11.127 -19.914,-62.54 -59.274,-5.765 -50.355,20.109 -31.581,59.189 -46.735,19.372 -71.946,-15.216 c 0,0 4.157,-54.429 4.157,-59.524 0,-5.094 -53.842,-23.595 -53.842,-23.595 l -9.119,-25.874 -111.976,-52.954 -26.553,-12.2 z"
       fill="#7f9c93"
       id="path6" />
  </g>
  <path
     d="m 71.51938,88.492345 h -7.663373 c -1.958998,0 -3.628204,-1.399784 -3.973135,-3.323702 L 59.18622,81.293339 c -0.10349,-0.579275 -0.606947,-0.99992 -1.200212,-0.99992 h -7.442607 c -0.544915,0 -1.027798,0.372398 -1.172643,0.89643 l -1.172641,4.316729 c -0.475888,1.758397 -2.07617,2.978874 -3.897216,2.978874 h -7.090887 c -1.889971,0 -3.552285,-1.344644 -3.945464,-3.199535 L 32.174721,80.176248 C 28.580979,79.403882 18.606888,76.749056 14.213005,70.363667 13.847396,69.825851 13.171423,69.591404 12.543798,69.777603 l -2.041759,0.606741 C 9.3639112,70.722279 8.1361093,70.556758 7.122148,69.929237 6.1150792,69.308711 5.4115045,68.281222 5.2045768,67.108992 L 2.0661055,49.469883 C 1.8384806,48.187271 2.2040601,46.904658 3.0800675,45.939304 3.9560872,44.97395 5.197674,44.470493 6.5013444,44.580875 l 0.7380575,0.05514 c 0.71737,0.04825 1.3726565,-0.393076 1.5657891,-1.061952 1.30367,-4.537288 4.856006,-12.784461 14.167908,-18.549221 -1.282921,-0.834397 -3.007371,-1.372317 -5.152567,-1.59987 l -1.510578,-0.158527 -0.413855,-3.047901 1.455438,-0.551705 17.720275,-6.571516 c 1.324276,-0.496493 2.786606,-0.372367 4.014387,0.337884 1.2141,0.703359 2.041811,1.903221 2.276256,3.28922 0.60705,3.633965 1.779692,6.137158 3.145426,6.723222 5.318088,1.537736 20.05167,4.192562 25.797502,-1.510063 1.648529,-1.634334 4.297286,-1.882564 6.297638,-0.593059 5.628557,3.654642 18.685938,14.122314 18.403142,32.471654 -0.02068,0.744693 -0.731114,17.370097 -17.430586,24.624346 l -2.186552,7.199007 c -0.517345,1.710149 -2.069278,2.861702 -3.862754,2.861702 M 50.557185,76.45947 h 7.442608 c 2.455666,0 4.545621,1.751504 4.980256,4.164993 l 0.696651,3.875304 c 0.01379,0.0897 0.09649,0.158629 0.193092,0.158629 h 7.663372 c 0.0897,0 0.15863,-0.05514 0.186301,-0.137952 l 2.717682,-8.943618 0.855281,-0.344828 c 15.15433,-6.088808 15.857874,-20.88 15.878654,-21.507521 0.248231,-16.390958 -11.560691,-25.851819 -16.651225,-29.154844 -0.489672,-0.317156 -1.1174,-0.275801 -1.489901,0.0966 -8.573792,8.502296 -28.818657,2.696182 -29.67404,2.441058 L 43.204179,27.05905 C 40.36233,25.969529 38.47236,22.700966 37.582514,17.349958 37.527373,17.012023 37.299718,16.832819 37.168659,16.756899 37.0376,16.681082 36.761696,16.5707 36.423761,16.69487 l -12.291805,4.557965 c 1.503685,0.78615 2.717682,1.820532 3.628205,3.110037 2.614294,3.689104 1.634744,7.992049 1.593389,8.171252 -0.248334,1.034382 -1.283024,1.668795 -2.310718,1.427457 -1.027798,-0.241339 -1.66931,-1.268828 -1.427868,-2.303209 0.01379,-0.05514 0.3725,-1.779074 -0.241442,-3.59261 -8.491083,5.102776 -11.69854,12.515654 -12.864289,16.570264 -0.696631,2.413488 -3.0280679,4.033934 -5.5595298,3.827057 l -0.7380577,-0.05514 c -0.1241566,-0.0069 -0.2207332,0.05514 -0.2759139,0.110383 -0.048278,0.05514 -0.1034587,0.144741 -0.082771,0.282693 l 3.1453732,17.652893 c 0.020687,0.117172 0.096567,0.186096 0.151747,0.220662 0.055181,0.03446 0.1517469,0.06893 0.2690112,0.03446 L 11.46082,66.10219 c 2.227948,-0.661984 4.607693,0.179306 5.925179,2.089336 4.379996,6.371605 16.59588,8.433476 16.720048,8.454153 l 1.296808,0.213768 1.620959,7.633437 c 0.02068,0.0897 0.0966,0.151736 0.1862,0.151736 h 7.090887 c 0.0897,0 0.165625,-0.06214 0.186302,-0.144844 l 1.172539,-4.316639 c 0.593264,-2.199719 2.60051,-3.737455 4.883659,-3.737455"
     fill="#023927"
     id="path7"
     style="stroke-width:0.102872" />
  <path
     d="m 26.532379,43.325832 c 0,2.054876 -1.662417,3.716778 -3.717909,3.716778 -2.055493,0 -3.71791,-1.661902 -3.71791,-3.716778 0,-2.054875 1.662417,-3.716777 3.71791,-3.716777 2.055492,0 3.717909,1.661902 3.717909,3.716777 z"
     fill="#023927"
     id="path8"
     style="stroke-width:0.102872" />
</svg>
