<?xml version="1.0" encoding="UTF-8" standalone="no"?>
<svg
   version="1.1"
   id="Layer_1"
   x="0px"
   y="0px"
   width="100%"
   viewBox="0 0 250 250"
   enable-background="new 0 0 250 250"
   xml:space="preserve"
   sodipodi:docname="file.svg"
   inkscape:version="1.4.4 (dcaf3e7d9e, 2026-05-05)"
   xmlns:inkscape="http://www.inkscape.org/namespaces/inkscape"
   xmlns:sodipodi="http://sodipodi.sourceforge.net/DTD/sodipodi-0.dtd"
   xmlns="http://www.w3.org/2000/svg"
   xmlns:svg="http://www.w3.org/2000/svg"><defs
   id="defs12" /><sodipodi:namedview
   id="namedview12"
   pagecolor="#ffffff"
   bordercolor="#000000"
   borderopacity="0.25"
   inkscape:showpageshadow="2"
   inkscape:pageopacity="0.0"
   inkscape:pagecheckerboard="0"
   inkscape:deskcolor="#d1d1d1"
   inkscape:zoom="3.48"
   inkscape:cx="125"
   inkscape:cy="125"
   inkscape:window-width="1920"
   inkscape:window-height="1128"
   inkscape:window-x="0"
   inkscape:window-y="0"
   inkscape:window-maximized="1"
   inkscape:current-layer="Layer_1" />

<path
   fill="#FCFDFF"
   opacity="1.000000"
   stroke="none"
   d=" M215.303986,47.726212   C225.676651,50.405304 227.065491,59.068108 228.924957,67.084068   C235.401169,95.002304 241.276062,123.065758 248.164932,150.879501   C250.687271,161.063461 244.380219,166.564102 239.420563,172.999527   C226.229691,190.115372 212.856308,207.091873 199.432144,224.026016   C194.360931,230.423187 189.174728,236.764038 183.564392,242.678528   C181.795959,244.542831 178.483231,245.848694 175.867477,245.865280   C142.707397,246.075592 109.544914,245.896683 76.384537,246.082993   C68.622955,246.126587 66.118614,239.691315 62.272541,235.369461   C53.737438,225.778473 45.899696,215.555267 37.976467,205.434174   C26.675663,190.998581 15.522595,176.446701 4.412233,161.863876   C3.523226,160.697021 2.826538,158.779251 3.099510,157.423706   C6.313275,141.464691 9.503397,125.494408 13.152670,109.631294   C17.188828,92.086403 21.856949,74.686676 25.871094,57.137096   C26.780453,53.161434 29.251318,51.468510 32.288895,49.996952   C59.484554,36.821995 86.709450,23.707399 113.921387,10.566030   C115.945457,9.588551 117.926941,8.523256 119.943718,7.530255   C123.969116,5.548273 127.978210,5.594531 132.049896,7.499482   C142.514618,12.395438 153.078278,17.085035 163.474030,22.122074   C180.701813,30.469419 197.828857,39.024632 215.303986,47.726212  M207.682602,201.183075   C217.284225,189.239090 226.744370,177.177292 236.549896,165.403107   C241.137833,159.894073 242.192352,154.165924 240.572906,147.303452   C234.232635,120.436508 228.070984,93.526756 221.994690,66.598663   C220.528488,60.100945 217.179443,55.678520 211.040314,52.787800   C185.455215,40.740589 159.971863,28.476267 134.497772,16.195005   C128.646637,13.374131 123.186768,13.522523 117.310928,16.371054   C91.863899,28.707455 66.342644,40.892700 40.766586,52.959553   C35.002895,55.678883 31.651014,59.851841 30.258049,65.970329   C23.982368,93.535812 17.618315,121.081161 11.314136,148.640182   C10.068851,154.084000 10.607245,159.162766 14.291731,163.725311   C32.501713,186.275055 50.666702,208.861221 68.813004,231.462265   C72.396767,235.925797 76.890579,238.078308 82.662888,238.063705   C111.489395,237.990784 140.316360,237.980133 169.142746,238.072067   C175.095306,238.091049 179.752029,235.986389 183.443619,231.344177   C191.322968,221.435776 199.293015,211.599503 207.682602,201.183075  z"
   id="path2" />
<path
   fill="#336DE5"
   opacity="1.000000"
   stroke="none"
   d=" M207.454254,201.458374   C199.293015,211.599503 191.322968,221.435776 183.443619,231.344177   C179.752029,235.986389 175.095306,238.091049 169.142746,238.072067   C140.316360,237.980133 111.489395,237.990784 82.662888,238.063705   C76.890579,238.078308 72.396767,235.925797 68.813004,231.462265   C50.666702,208.861221 32.501713,186.275055 14.291731,163.725311   C10.607245,159.162766 10.068851,154.084000 11.314136,148.640182   C17.618315,121.081161 23.982368,93.535812 30.258049,65.970329   C31.651014,59.851841 35.002895,55.678883 40.766586,52.959553   C66.342644,40.892700 91.863899,28.707455 117.310928,16.371054   C123.186768,13.522523 128.646637,13.374131 134.497772,16.195005   C159.971863,28.476267 185.455215,40.740589 211.040314,52.787800   C217.179443,55.678520 220.528488,60.100945 221.994690,66.598663   C228.070984,93.526756 234.232635,120.436508 240.572906,147.303452   C242.192352,154.165924 241.137833,159.894073 236.549896,165.403107   C226.744370,177.177292 217.284225,189.239090 207.454254,201.458374  M92.106461,77.561806   C87.602966,81.142891 83.099464,84.723976 78.474297,88.401817   C72.572884,82.934311 66.765991,77.554375 60.680866,71.916664   C58.198689,74.810158 56.201595,77.138199 54.041256,79.656525   C60.510834,85.760590 66.639984,91.543472 72.058105,96.655487   C69.513176,103.916794 66.584839,110.175232 65.216629,116.757935   C63.811668,123.517456 63.931004,130.593796 63.345249,138.012955   C60.738903,138.883804 57.648651,139.916336 54.404659,141.000244   C53.297306,138.527115 52.322639,136.350327 51.011669,133.422440   C46.701698,139.811829 42.843815,145.531021 38.681026,151.702240   C45.761948,154.283279 52.313309,156.671295 59.658634,159.348724   C58.791824,156.008743 58.220142,153.805939 57.515869,151.092224   C60.408188,150.129456 63.159458,149.213623 66.228394,148.192062   C71.530869,163.574554 80.847656,175.326523 94.593201,183.850357   C93.230637,186.786011 91.997711,189.442352 90.675110,192.291916   C88.101906,191.342499 85.853355,190.512878 82.768112,189.374557   C84.344376,196.901917 85.756790,203.646790 87.315247,211.089127   C94.076256,207.713058 100.296776,204.606857 107.265900,201.126862   C104.116302,199.283081 102.038185,198.066544 99.993759,196.869720   C100.493820,195.702255 100.907562,194.963501 101.133606,194.171188   C102.473854,189.473618 104.907089,188.379303 109.861443,189.935333   C120.552658,193.293182 131.575684,193.210587 142.307434,189.957733   C146.826263,188.588058 149.538513,189.010056 150.743973,193.867279   C150.973465,194.791992 151.472961,195.649704 151.915253,196.698029   C149.689346,198.003311 147.624191,199.214325 144.684601,200.938095   C151.696732,204.419128 157.839920,207.468781 164.584183,210.816849   C166.161346,203.227264 167.571655,196.440613 169.142395,188.881912   C165.867004,190.237900 163.649124,191.156067 161.207138,192.167023   C159.876923,189.272415 158.718155,186.750916 157.399841,183.882202   C171.433716,175.436981 180.648209,163.397980 185.976562,148.098923   C189.217957,149.234711 191.984558,150.204132 194.747879,151.172409   C193.996628,153.853165 193.349930,156.160858 192.418228,159.485489   C199.978424,156.673782 206.508453,154.245193 213.481003,151.652039   C209.171417,145.284256 205.335556,139.616455 201.059830,133.298721   C199.658737,136.539001 198.702911,138.749557 197.731918,140.995163   C194.213623,139.785950 191.128326,138.725555 187.921448,137.623383   C189.584213,123.042992 186.722351,109.782364 179.386017,97.317734   C185.765427,91.331955 191.927963,85.549675 198.289093,79.581062   C195.905624,76.970695 193.798492,74.662987 191.376434,72.010353   C185.191666,77.727737 179.278030,83.194466 173.199677,88.813477   C162.665497,77.428665 150.260529,70.376999 135.429840,68.206085   C131.944000,67.695831 130.987396,66.644699 131.096451,63.327892   C131.313171,56.735580 131.160553,50.131134 131.160553,43.484188   C127.391296,43.484188 124.339752,43.484188 120.756706,43.484188   C120.756706,51.769001 120.756706,59.685577 120.756706,67.647629   C110.312401,68.660385 101.134483,71.823967 92.106461,77.561806  z"
   id="path3" />
<path
   fill="#FBFCFE"
   opacity="1.000000"
   stroke="none"
   d=" M92.410736,77.363083   C101.134483,71.823967 110.312401,68.660385 120.756706,67.647629   C120.756706,59.685577 120.756706,51.769001 120.756706,43.484188   C124.339752,43.484188 127.391296,43.484188 131.160553,43.484188   C131.160553,50.131134 131.313171,56.735580 131.096451,63.327892   C130.987396,66.644699 131.944000,67.695831 135.429840,68.206085   C150.260529,70.376999 162.665497,77.428665 173.199677,88.813477   C179.278030,83.194466 185.191666,77.727737 191.376434,72.010353   C193.798492,74.662987 195.905624,76.970695 198.289093,79.581062   C191.927963,85.549675 185.765427,91.331955 179.386017,97.317734   C186.722351,109.782364 189.584213,123.042992 187.921448,137.623383   C191.128326,138.725555 194.213623,139.785950 197.731918,140.995163   C198.702911,138.749557 199.658737,136.539001 201.059830,133.298721   C205.335556,139.616455 209.171417,145.284256 213.481003,151.652039   C206.508453,154.245193 199.978424,156.673782 192.418228,159.485489   C193.349930,156.160858 193.996628,153.853165 194.747879,151.172409   C191.984558,150.204132 189.217957,149.234711 185.976562,148.098923   C180.648209,163.397980 171.433716,175.436981 157.399841,183.882202   C158.718155,186.750916 159.876923,189.272415 161.207138,192.167023   C163.649124,191.156067 165.867004,190.237900 169.142395,188.881912   C167.571655,196.440613 166.161346,203.227264 164.584183,210.816849   C157.839920,207.468781 151.696732,204.419128 144.684601,200.938095   C147.624191,199.214325 149.689346,198.003311 151.915253,196.698029   C151.472961,195.649704 150.973465,194.791992 150.743973,193.867279   C149.538513,189.010056 146.826263,188.588058 142.307434,189.957733   C131.575684,193.210587 120.552658,193.293182 109.861443,189.935333   C104.907089,188.379303 102.473854,189.473618 101.133606,194.171188   C100.907562,194.963501 100.493820,195.702255 99.993759,196.869720   C102.038185,198.066544 104.116302,199.283081 107.265900,201.126862   C100.296776,204.606857 94.076256,207.713058 87.315247,211.089127   C85.756790,203.646790 84.344376,196.901917 82.768112,189.374557   C85.853355,190.512878 88.101906,191.342499 90.675110,192.291916   C91.997711,189.442352 93.230637,186.786011 94.593201,183.850357   C80.847656,175.326523 71.530869,163.574554 66.228394,148.192062   C63.159458,149.213623 60.408188,150.129456 57.515869,151.092224   C58.220142,153.805939 58.791824,156.008743 59.658634,159.348724   C52.313309,156.671295 45.761948,154.283279 38.681026,151.702240   C42.843815,145.531021 46.701698,139.811829 51.011669,133.422440   C52.322639,136.350327 53.297306,138.527115 54.404659,141.000244   C57.648651,139.916336 60.738903,138.883804 63.345249,138.012955   C63.931004,130.593796 63.811668,123.517456 65.216629,116.757935   C66.584839,110.175232 69.513176,103.916794 72.058105,96.655487   C66.639984,91.543472 60.510834,85.760590 54.041256,79.656525   C56.201595,77.138199 58.198689,74.810158 60.680866,71.916664   C66.765991,77.554375 72.572884,82.934311 78.474297,88.401817   C83.099464,84.723976 87.602966,81.142891 92.410736,77.363083  M156.345154,104.839653   C158.850662,102.470825 161.356171,100.101990 163.996475,97.605736   C155.060913,87.541382 144.534119,81.793068 131.153763,80.458389   C131.153763,89.704338 131.077377,98.502190 131.244064,107.295425   C131.266571,108.482735 132.255447,109.958359 133.237274,110.763184   C136.141800,113.144051 139.266953,115.255737 142.543137,117.645859   C146.839294,113.658630 151.330643,109.490273 156.345154,104.839653  M151.187714,136.139862   C149.165146,135.545898 147.142593,134.951920 145.371628,134.431839   C143.318420,137.727097 141.428925,140.615067 139.719864,143.606155   C139.302704,144.336227 139.104172,145.578812 139.436752,146.290695   C143.478622,154.942200 147.638687,163.538498 151.910370,172.445862   C163.012482,165.361130 170.177826,156.230942 173.703720,143.878525   C166.047089,141.254608 158.999130,138.839279 151.187714,136.139862  M103.230484,85.582047   C98.158707,89.220032 93.086937,92.858017 87.483528,96.877342   C94.977119,103.923828 101.577141,110.130058 107.652954,115.843353   C112.385963,113.100601 116.502747,110.714951 120.717484,108.272537   C120.717484,99.225952 120.717484,89.942474 120.717484,79.579811   C114.758804,81.570274 109.319641,83.387199 103.230484,85.582047  M83.555405,155.847366   C87.761139,162.514801 92.884605,168.226196 100.273544,172.226929   C104.152939,164.126663 107.936134,156.382401 111.512039,148.543610   C111.911667,147.667587 111.454781,146.040878 110.845711,145.129395   C108.661476,141.860718 106.241112,138.749802 103.664612,135.245422   C95.573280,138.045792 87.032509,141.001709 77.935585,144.150116   C79.914391,148.365311 81.527786,151.802139 83.555405,155.847366  M111.223053,177.431625   C121.627815,180.628632 131.920578,180.747513 142.523026,176.660629   C138.782028,168.688126 135.270462,161.179001 131.732849,153.682175   C130.759430,151.619308 130.112946,149.534119 126.847916,149.825653   C123.855896,150.092834 121.678810,150.292511 120.302704,153.616974   C117.637901,160.054733 114.346504,166.230698 111.453491,172.578369   C110.838310,173.928146 110.816162,175.548203 111.223053,177.431625  M152.105591,122.533432   C151.491150,123.222992 150.876724,123.912552 149.854279,125.060013   C158.689941,127.964478 167.024734,130.704300 175.852463,133.606155   C176.288864,123.372002 174.535660,114.705215 169.763779,106.210991   C163.788025,111.736549 158.204163,116.899734 152.105591,122.533432  M97.934738,120.549820   C92.813210,115.819901 87.691681,111.089973 82.322166,106.131027   C77.745659,114.731255 75.621429,123.464752 76.425438,133.681488   C85.342781,130.685944 93.597137,127.913132 103.364624,124.632011   C101.111465,122.981583 99.781738,122.007568 97.934738,120.549820  M131.717743,134.217575   C134.382736,131.367157 134.766647,128.322495 132.153549,125.299355   C129.331528,122.034531 125.459755,120.716484 121.916611,123.130028   C119.698006,124.641319 117.504524,127.980453 117.488037,130.513687   C117.463333,134.310318 120.950294,136.609894 124.717522,136.768051   C126.833298,136.856888 129.010971,135.471313 131.717743,134.217575  z"
   id="path4" />
<path
   fill="#366FE6"
   opacity="1.000000"
   stroke="none"
   d=" M156.083557,105.080780   C151.330643,109.490273 146.839294,113.658630 142.543137,117.645859   C139.266953,115.255737 136.141800,113.144051 133.237274,110.763184   C132.255447,109.958359 131.266571,108.482735 131.244064,107.295425   C131.077377,98.502190 131.153763,89.704338 131.153763,80.458389   C144.534119,81.793068 155.060913,87.541382 163.996475,97.605736   C161.356171,100.101990 158.850662,102.470825 156.083557,105.080780  z"
   id="path5" />
<path
   fill="#366EE5"
   opacity="1.000000"
   stroke="none"
   d=" M151.569458,136.281891   C158.999130,138.839279 166.047089,141.254608 173.703720,143.878525   C170.177826,156.230942 163.012482,165.361130 151.910370,172.445862   C147.638687,163.538498 143.478622,154.942200 139.436752,146.290695   C139.104172,145.578812 139.302704,144.336227 139.719864,143.606155   C141.428925,140.615067 143.318420,137.727097 145.371628,134.431839   C147.142593,134.951920 149.165146,135.545898 151.569458,136.281891  z"
   id="path6" />
<path
   fill="#356EE5"
   opacity="1.000000"
   stroke="none"
   d=" M103.555481,85.393082   C109.319641,83.387199 114.758804,81.570274 120.717484,79.579811   C120.717484,89.942474 120.717484,99.225952 120.717484,108.272537   C116.502747,110.714951 112.385963,113.100601 107.652954,115.843353   C101.577141,110.130058 94.977119,103.923828 87.483528,96.877342   C93.086937,92.858017 98.158707,89.220032 103.555481,85.393082  z"
   id="path7" />
<path
   fill="#366FE5"
   opacity="1.000000"
   stroke="none"
   d=" M83.348297,155.543152   C81.527786,151.802139 79.914391,148.365311 77.935585,144.150116   C87.032509,141.001709 95.573280,138.045792 103.664612,135.245422   C106.241112,138.749802 108.661476,141.860718 110.845711,145.129395   C111.454781,146.040878 111.911667,147.667587 111.512039,148.543610   C107.936134,156.382401 104.152939,164.126663 100.273544,172.226929   C92.884605,168.226196 87.761139,162.514801 83.348297,155.543152  z"
   id="path8" />
<path
   fill="#366FE6"
   opacity="1.000000"
   stroke="none"
   d=" M110.871925,177.237686   C110.816162,175.548203 110.838310,173.928146 111.453491,172.578369   C114.346504,166.230698 117.637901,160.054733 120.302704,153.616974   C121.678810,150.292511 123.855896,150.092834 126.847916,149.825653   C130.112946,149.534119 130.759430,151.619308 131.732849,153.682175   C135.270462,161.179001 138.782028,168.688126 142.523026,176.660629   C131.920578,180.747513 121.627815,180.628632 110.871925,177.237686  z"
   id="path9" />
<path
   fill="#3870E6"
   opacity="1.000000"
   stroke="none"
   d=" M152.362946,122.298172   C158.204163,116.899734 163.788025,111.736549 169.763779,106.210991   C174.535660,114.705215 176.288864,123.372002 175.852463,133.606155   C167.024734,130.704300 158.689941,127.964478 149.854279,125.060013   C150.876724,123.912552 151.491150,123.222992 152.362946,122.298172  z"
   id="path10" />
<path
   fill="#3870E6"
   opacity="1.000000"
   stroke="none"
   d=" M98.193375,120.791687   C99.781738,122.007568 101.111465,122.981583 103.364624,124.632011   C93.597137,127.913132 85.342781,130.685944 76.425438,133.681488   C75.621429,123.464752 77.745659,114.731255 82.322166,106.131027   C87.691681,111.089973 92.813210,115.819901 98.193375,120.791687  z"
   id="path11" />
<path
   fill="#366EE5"
   opacity="1.000000"
   stroke="none"
   d=" M131.439255,134.483795   C129.010971,135.471313 126.833298,136.856888 124.717522,136.768051   C120.950294,136.609894 117.463333,134.310318 117.488037,130.513687   C117.504524,127.980453 119.698006,124.641319 121.916611,123.130028   C125.459755,120.716484 129.331528,122.034531 132.153549,125.299355   C134.766647,128.322495 134.382736,131.367157 131.439255,134.483795  z"
   id="path12" />
</svg>
